<svg width="621" height="46" viewBox="0 0 621 46" fill="none" xmlns="http://www.w3.org/2000/svg">
<path d="M3.76062 20.5141C2.37493 20.978 1.23028 21.9734 0.578475 23.2812C-0.0733261 24.5891 -0.178885 26.1023 0.285018 27.488C0.748921 28.8737 1.74429 30.0183 3.05215 30.6701C4.36001 31.3219 5.87323 31.4275 7.25892 30.9636C7.25892 30.9636 7.25892 30.9636 7.25892 30.9636C9.6627 30.2105 13.2166 29.4204 16.3102 28.6706C16.3109 28.6704 16.3115 28.6702 16.3122 28.6701C22.8484 27.0802 29.3754 26.0045 36.0899 25.172C50.5357 23.4007 65.2817 22.6139 79.9596 21.6523C79.9647 21.652 79.9697 21.6517 79.9748 21.6514C134.929 18.3542 190.3 16.9205 245.475 16.2763C245.479 16.2762 245.484 16.2762 245.489 16.2761C290.921 15.8068 336.234 16.524 381.532 18.9344C381.536 18.9347 381.541 18.9349 381.545 18.9351C420.648 20.9582 459.63 24.1095 498.391 28.6385C498.394 28.6388 498.397 28.6392 498.4 28.6395C525.633 31.8156 552.803 35.9098 580.006 40.2989C590.001 41.9101 600 43.5579 610.011 45.2074C612.423 45.6049 614.894 45.0279 616.881 43.6034C618.867 42.179 620.207 40.0237 620.604 37.6118C621.001 35.1999 620.424 32.7288 619 30.7423C617.575 28.7558 615.42 27.4165 613.008 27.0191C613.008 27.0191 613.008 27.0191 613.008 27.0191C602.997 25.3696 592.977 23.7183 582.94 22.1003C555.622 17.693 528.168 13.5528 500.538 10.3304C500.535 10.3301 500.532 10.3297 500.529 10.3294C461.217 5.7364 421.753 3.27024 382.344 1.66256C382.339 1.66238 382.335 1.66221 382.331 1.66203C336.66 -0.269338 290.87 -0.398049 245.238 0.662901C245.233 0.663012 245.228 0.663123 245.223 0.663234C189.775 2.02802 134.436 4.07078 79.0029 8.30583C78.9978 8.30625 78.9927 8.30666 78.9876 8.30708C64.1408 9.52599 49.2823 11.333 34.4281 13.7856C27.5547 14.9277 20.557 16.2949 13.7654 17.9489C13.7647 17.9491 13.764 17.9492 13.7634 17.9494C10.4701 18.76 7.61968 19.325 3.76062 20.5141Z" fill="#2B7FFF"/>
</svg>
